<svg id="svg" version="1.1" xmlns="http://www.w3.org/2000/svg" xmlns:xlink="http://www.w3.org/1999/xlink" width="400" height="411.6788321167883" viewBox="0, 0, 400,411.6788321167883"><g id="svgg"><path id="path0" d="M180.400 16.272 C 91.829 25.359,32.346 81.292,19.041 168.000 C 16.856 182.238,16.482 211.565,18.324 224.200 C 22.895 255.554,30.948 278.895,46.198 304.993 C 54.800 319.712,54.292 322.745,41.600 332.450 C 28.315 342.609,27.083 349.754,36.674 361.019 C 43.960 369.578,60.146 387.658,62.314 389.661 C 69.279 396.096,75.131 395.957,85.706 389.107 C 113.791 370.916,155.088 343.261,157.490 341.038 C 165.022 334.064,164.184 327.793,154.198 316.400 C 132.199 291.304,123.147 267.664,121.191 230.200 C 118.433 177.367,142.416 140.121,184.600 131.729 C 190.374 130.580,210.277 130.694,215.837 131.908 C 262.837 142.169,285.793 185.523,276.776 247.000 C 272.448 276.513,262.644 297.301,243.489 317.586 C 236.034 325.481,234.382 330.919,237.507 337.271 C 239.711 341.749,239.256 341.401,271.400 363.206 C 277.120 367.087,285.580 372.844,290.200 376.001 C 329.228 402.671,325.431 402.807,351.622 373.800 C 366.700 357.101,367.425 356.015,367.370 350.200 C 367.315 344.428,365.218 341.325,356.944 334.773 C 343.851 324.405,343.445 321.768,352.603 306.600 C 389.453 245.569,393.221 170.510,362.523 109.000 C 336.294 56.445,285.955 23.411,221.704 16.593 C 216.651 16.056,184.903 15.810,180.400 16.272 " stroke="none" fill="#f95187" fill-rule="evenodd"></path></g></svg>